HIERARCHY
ROOT Hips
{
	OFFSET 0.000000 0.000000 0.000000
	CHANNELS 6 Xposition Yposition Zposition Zrotation Yrotation Xrotation 
	JOINT LowerBack
	{
		OFFSET 0.000000 0.000000 0.000000
		CHANNELS 3 Zrotation Yrotation Xrotation
		JOINT Spine
		{
			OFFSET 0.028270 2.035590 -0.193380
			CHANNELS 3 Zrotation Yrotation Xrotation
			JOINT Spine1
			{
				OFFSET 0.056720 2.048850 -0.042750
				CHANNELS 3 Zrotation Yrotation Xrotation
				JOINT Neck
				{
					OFFSET 0.000000 0.000000 0.000000
					CHANNELS 3 Zrotation Yrotation Xrotation
					JOINT Neck1
					{
						OFFSET -0.054170 1.746240 0.172020
						CHANNELS 3 Zrotation Yrotation Xrotation
						JOINT Head
						{
							OFFSET 0.104070 1.761360 -0.123970
							CHANNELS 3 Zrotation Yrotation Xrotation
							End Site
							{
								OFFSET 0.000000 0.000000 0.000000
							}
						}
					}
				}
				JOINT LeftShoulder
				{
					OFFSET 0.000000 0.000000 0.000000
					CHANNELS 3 Zrotation Yrotation Xrotation
					JOINT LeftArm
					{
						OFFSET 3.362410 1.200890 -0.311210
						CHANNELS 3 Zrotation Yrotation Xrotation
						JOINT LeftForeArm
						{
							OFFSET 4.983000 -0.000000 -0.000000
							CHANNELS 3 Zrotation Yrotation Xrotation
							JOINT LeftHand
							{
								OFFSET 3.483560 -0.000000 -0.000000
								CHANNELS 3 Zrotation Yrotation Xrotation
								JOINT LeftFingerBase
								{
									OFFSET 0.000000 0.000000 0.000000
									CHANNELS 3 Zrotation Yrotation Xrotation
									JOINT LeftHandIndex1
									{
										OFFSET 0.715260 -0.000000 -0.000000
										CHANNELS 3 Zrotation Yrotation Xrotation
										End Site
										{
											OFFSET 0.000000 0.000000 0.000000
										}
									}
								}
								JOINT LThumb
								{
									OFFSET 0.000000 0.000000 0.000000
									CHANNELS 3 Zrotation Yrotation Xrotation
									End Site
									{
										OFFSET 0.000000 0.000000 0.000000
									}
								}
							}
						}
					}
				}
				JOINT RightShoulder
				{
					OFFSET 0.000000 0.000000 0.000000
					CHANNELS 3 Zrotation Yrotation Xrotation
					JOINT RightArm
					{
						OFFSET -3.136600 1.374050 -0.404650
						CHANNELS 3 Zrotation Yrotation Xrotation
						JOINT RightForeArm
						{
							OFFSET -5.241900 -0.000000 -0.000000
							CHANNELS 3 Zrotation Yrotation Xrotation
							JOINT RightHand
							{
								OFFSET -3.444170 -0.000000 -0.000000
								CHANNELS 3 Zrotation Yrotation Xrotation
								JOINT RightFingerBase
								{
									OFFSET 0.000000 0.000000 0.000000
									CHANNELS 3 Zrotation Yrotation Xrotation
									JOINT RightHandIndex1
									{
										OFFSET -0.622530 -0.000000 -0.000000
										CHANNELS 3 Zrotation Yrotation Xrotation
										End Site
										{
											OFFSET 0.000000 0.000000 0.000000
										}
									}
								}
								JOINT RThumb
								{
									OFFSET 0.000000 0.000000 0.000000
									CHANNELS 3 Zrotation Yrotation Xrotation
									End Site
									{
										OFFSET 0.000000 0.000000 0.000000
									}
								}
							}
						}
					}
				}
			}
		}
	}
}
}
MOTION
Frames: 6
Frame Time: 0.008333
-15.879794 16.017388 0.457731 8.824350 84.383631 50.695554 -7.965088 0.820214 0.450167 -2.770447 1.112857 -2.783371 -5.687873 1.007560 0.788839 5.953162 4.976182 2.464960 -3.134721 -0.334449 2.269118 0.000000 0.000000 0.000000 -1.353096 2.030433 2.706148 -47.336156 11.489527 15.289665 -4.384218 -12.797858 -0.017502 -4.168380 5.348737 -0.190926 -0.135608 -0.063712 -0.000000 0.000000 0.000000 0.000000 0.000000 0.000000 0.000000 11.177100 6.469597 -1.465819 75.870829 36.703355 25.102017 1.550991 51.981768 0.005757 0.724445 9.580198 0.062673 0.005976 -0.307396 -0.000000 0.000000 0.000000 0.000000 0.000000 0.000000 0.000000 
-15.678106 15.870926 0.468473 11.879686 84.576202 53.587947 -8.272228 0.725684 0.650634 -2.865864 1.027662 -2.770125 -5.827437 0.920876 0.671161 6.167898 5.394938 2.568974 -3.254862 -0.341784 2.287352 0.000000 0.000000 0.000000 -1.705547 1.603980 2.764558 -46.659158 11.308684 16.576169 -4.416248 -12.979002 -0.017658 -4.374805 5.290228 -0.198420 -0.136432 -0.063700 -0.000000 0.000000 0.000000 0.000000 0.000000 0.000000 0.000000 11.940476 6.778551 -1.381621 75.493332 36.098740 24.142509 1.508769 51.626346 0.004758 0.649022 9.452486 0.055655 0.002660 -0.306712 -0.000000 0.000000 0.000000 0.000000 0.000000 0.000000 0.000000 
-15.479305 15.729713 0.479750 15.604727 84.762332 57.088283 -8.575450 0.652344 0.927039 -2.962294 0.961673 -2.741331 -5.967377 0.853780 0.550724 6.412731 5.838114 2.706372 -3.383763 -0.349694 2.311940 0.000000 0.000000 0.000000 -2.107602 1.108285 2.823084 -45.978819 10.889553 17.630835 -4.456301 -12.918758 -0.017512 -4.537439 5.147888 -0.200412 -0.138037 -0.062230 -0.000000 0.000000 0.000000 0.000000 0.000000 0.000000 0.000000 12.772768 7.090562 -1.289656 75.030176 35.443135 23.001404 1.462666 51.178373 0.003575 0.543878 9.375418 0.046633 -0.000887 -0.306083 -0.000000 0.000000 0.000000 0.000000 0.000000 0.000000 0.000000 
-15.283779 15.596295 0.490926 19.803328 84.921463 61.004961 -8.862468 0.609711 1.277993 -3.055945 0.923494 -2.696393 -6.102659 0.814899 0.432985 6.673593 6.298818 2.872992 -3.518347 -0.357891 2.341788 0.000000 0.000000 0.000000 -2.555374 0.573035 2.880366 -45.329146 10.171584 18.416124 -4.501435 -12.588091 -0.017027 -4.604323 4.947586 -0.195400 -0.140367 -0.059036 -0.000000 0.000000 0.000000 0.000000 0.000000 0.000000 0.000000 13.645416 7.398983 -1.194234 74.493699 34.745994 21.681767 1.412446 50.616001 0.002124 0.383082 9.376310 0.033211 -0.004306 -0.305593 -0.000000 0.000000 0.000000 0.000000 0.000000 0.000000 0.000000 
-15.091331 15.472809 0.501231 24.206970 85.036373 65.076857 -9.124172 0.605192 1.693804 -3.143411 0.920047 -2.637355 -6.228788 0.810948 0.320264 6.935592 6.768787 3.066779 -3.655147 -0.366132 2.376757 0.000000 0.000000 0.000000 -3.044042 0.002565 2.934561 -44.748526 9.146571 18.834031 -4.547532 -11.985800 -0.016195 -4.510285 4.732650 -0.182784 -0.143162 -0.053794 -0.000000 0.000000 0.000000 0.000000 0.000000 0.000000 0.000000 14.527890 7.696526 -1.097353 73.899264 34.015668 20.198516 1.358158 49.913481 0.000304 0.135121 9.476741 0.012589 -0.007121 -0.305261 -0.000000 0.000000 0.000000 0.000000 0.000000 0.000000 0.000000 
-14.901744 15.360811 0.509858 28.519612 85.098831 69.019207 -9.350959 0.641503 2.160273 -3.220594 0.954105 -2.564350 -6.340108 0.844836 0.223744 7.181438 7.235864 3.274378 -3.789963 -0.373996 2.413636 0.000000 0.000000 0.000000 -3.565063 -0.535216 2.982252 -44.270522 7.731705 18.863514 -4.587043 -11.096241 -0.015016 -4.182244 4.539146 -0.161763 -0.145845 -0.046042 -0.000000 0.000000 0.000000 0.000000 0.000000 0.000000 0.000000 15.381953 7.971256 -1.006473 73.271546 33.268664 18.577578 1.299802 49.045124 -0.001973 -0.228256 9.689215 -0.018834 -0.008897 -0.304883 0.000000 0.000000 0.000000 0.000000 0.000000 0.000000 0.000000 
